<?xml version="1.0" standalone="no"?>
<!DOCTYPE svg PUBLIC "-//W3C//DTD SVG 20010904//EN"
 "http://www.w3.org/TR/2001/REC-SVG-20010904/DTD/svg10.dtd">
<svg version="1.0" xmlns="http://www.w3.org/2000/svg"
 width="2407.000000pt" height="349.000000pt" viewBox="0 0 2407.000000 349.000000"
 preserveAspectRatio="xMidYMid meet">

<g transform="translate(0.000000,349.000000) scale(0.100000,-0.100000)"
fill="#000000" stroke="none">
<path d="M5860 2430 c-425 -59 -850 -310 -850 -501 0 -61 31 -89 97 -89 55 0
87 16 163 84 78 70 216 164 308 210 258 130 580 155 648 50 32 -48 -39 -148
-166 -234 -65 -44 -248 -135 -256 -127 -2 2 -1 15 4 28 28 72 -76 130 -141 79
-41 -33 -95 -126 -270 -475 -92 -181 -194 -380 -227 -441 l-59 -111 -79 -5
c-115 -8 -162 -38 -162 -103 0 -35 54 -89 105 -105 22 -7 106 -15 186 -17 348
-12 716 95 960 279 190 143 259 299 207 468 -29 93 -139 186 -298 250 l-83 34
34 15 c112 50 242 119 295 156 74 53 164 149 189 201 72 152 -20 289 -227 339
-77 19 -290 27 -378 15z m-15 -881 c119 -55 192 -131 210 -216 4 -20 0 -55
-10 -90 -40 -137 -252 -269 -508 -318 -155 -29 -159 -63 36 325 153 304 173
339 192 334 11 -3 47 -19 80 -35z"/>
<path d="M13225 2431 c-37 -15 -54 -46 -144 -252 -119 -272 -142 -321 -260
-558 -127 -253 -185 -357 -277 -496 -94 -142 -171 -226 -247 -271 -74 -43 -96
-68 -97 -111 0 -59 54 -76 157 -49 82 22 139 56 205 120 144 143 280 357 470
736 l128 255 0 -276 c0 -389 10 -607 27 -625 24 -23 76 -17 124 16 92 61 139
138 444 722 71 136 130 246 131 245 1 -1 -11 -103 -26 -227 -55 -425 -100
-825 -100 -876 0 -97 59 -129 156 -85 66 30 76 63 79 265 2 130 14 260 49 541
97 777 100 817 75 871 -11 23 -22 30 -51 32 -29 2 -43 -3 -73 -29 -69 -61
-213 -296 -491 -801 l-119 -217 -6 382 c-8 453 -25 652 -60 679 -22 19 -61 22
-94 9z"/>
<path d="M17033 2274 c-17 -9 -39 -24 -47 -33 -18 -20 -381 -822 -442 -975
-30 -78 -45 -103 -69 -118 -63 -38 -464 -238 -479 -238 -9 0 -16 6 -16 13 0 6
70 86 156 176 181 192 214 240 214 323 0 46 -5 62 -24 85 -23 26 -30 28 -93
27 -75 -1 -193 -40 -289 -94 -30 -16 -55 -30 -57 -30 -3 0 -4 17 -3 37 1 31
-4 40 -32 59 -64 44 -188 43 -242 -2 -39 -34 -47 -75 -22 -125 l20 -40 -33
-72 c-34 -77 -119 -168 -254 -277 -223 -179 -267 -97 -142 266 33 98 61 191
61 205 0 29 -34 65 -71 74 -15 4 -47 -2 -81 -15 l-57 -21 -39 26 c-84 56 -184
68 -303 37 -177 -47 -330 -209 -412 -437 -38 -105 -48 -234 -23 -300 34 -88
148 -153 247 -142 99 12 233 105 345 239 l39 48 0 -83 c0 -236 167 -270 417
-85 43 32 78 56 78 54 0 -2 -9 -23 -20 -47 -11 -24 -20 -56 -20 -70 0 -32 28
-59 61 -59 38 0 127 48 154 84 13 17 67 124 121 239 54 114 112 224 130 245
35 41 180 116 211 110 29 -6 18 -53 -26 -116 -172 -244 -211 -317 -211 -393 0
-73 49 -124 132 -135 81 -11 186 31 405 164 l130 79 7 -66 c12 -128 75 -201
194 -223 149 -28 325 33 460 157 70 65 72 66 99 52 55 -28 126 -28 249 -2 31
7 31 7 37 -44 9 -72 31 -109 80 -132 104 -47 277 4 461 136 43 31 79 55 81 53
1 -2 10 -19 19 -38 26 -57 70 -104 127 -135 50 -28 61 -30 154 -29 124 1 232
31 390 108 113 55 269 153 318 199 44 42 31 127 -20 127 -9 0 -50 -20 -92 -44
-268 -154 -476 -224 -580 -196 -36 9 -82 52 -70 64 2 3 54 25 114 51 226 96
363 196 421 305 28 52 26 154 -4 201 -34 56 -80 74 -187 73 -158 -1 -294 -62
-420 -189 -87 -88 -135 -160 -167 -254 -20 -59 -23 -62 -117 -125 -120 -81
-200 -118 -243 -114 -31 3 -33 6 -36 44 -3 36 2 47 32 79 35 37 63 106 51 125
-7 11 215 479 387 817 124 244 133 278 76 313 -43 26 -84 25 -133 -3 -38 -21
-47 -39 -275 -522 -129 -276 -252 -538 -272 -582 l-37 -82 -66 -20 c-79 -25
-163 -28 -171 -7 -3 8 6 37 20 64 28 55 76 211 76 246 0 86 -71 177 -157 202
-45 13 -65 14 -120 4 -76 -13 -166 -51 -243 -103 -30 -20 -55 -35 -57 -33 -3
3 53 121 263 555 108 224 115 259 57 290 -30 15 -82 13 -120 -5z m1666 -870
c27 -19 22 -55 -12 -93 -41 -44 -332 -230 -343 -219 -7 8 76 166 111 212 67
88 189 138 244 100z m-1564 -48 c34 -35 42 -89 21 -166 -43 -164 -197 -300
-341 -300 -72 0 -99 15 -115 66 -32 97 51 264 173 348 107 74 218 96 262 52z
m-2296 -14 c19 -9 43 -29 54 -43 17 -24 17 -28 3 -63 -37 -89 -171 -253 -260
-318 -64 -46 -129 -34 -156 31 -19 46 -9 166 19 223 72 148 229 227 340 170z"/>
<path d="M6835 1568 c-78 -14 -188 -73 -255 -134 -173 -161 -277 -449 -215
-602 24 -58 95 -118 164 -138 97 -29 271 4 389 73 56 33 150 120 186 172 l28
39 41 -19 c23 -10 58 -19 77 -19 34 0 112 33 157 65 l21 16 -19 -61 c-63 -203
39 -307 265 -271 111 17 221 77 311 166 l73 74 -5 -72 c-7 -93 10 -137 62
-161 52 -25 128 -15 230 30 44 19 86 38 93 41 7 3 12 -2 12 -12 0 -27 55 -75
87 -75 61 1 88 31 161 175 105 209 288 432 397 485 32 16 68 24 100 25 l50 0
-1 -45 c0 -37 -12 -66 -67 -162 -143 -248 -168 -342 -119 -435 12 -22 60 -43
100 -43 72 0 262 71 389 146 l72 42 12 -35 c15 -46 63 -99 113 -126 33 -17 58
-21 131 -21 113 -1 199 25 350 102 60 32 112 58 116 60 4 2 3 -16 -2 -39 -26
-115 48 -157 193 -108 104 35 192 100 344 254 l142 142 -105 -216 c-115 -239
-116 -241 -183 -326 -139 -176 -209 -321 -210 -429 0 -53 3 -61 34 -92 40 -40
77 -44 135 -14 75 38 139 144 245 405 47 115 65 147 99 179 61 57 160 119 352
221 93 50 185 106 206 125 59 56 65 123 13 157 -22 14 -31 15 -62 4 -63 -22
-274 -125 -346 -169 -38 -24 -70 -41 -71 -40 -3 3 13 36 167 358 54 113 98
215 98 227 0 29 -26 53 -56 53 -64 0 -127 -50 -405 -326 -276 -274 -319 -307
-319 -251 0 12 54 134 120 271 66 137 120 255 120 262 0 7 -10 22 -22 34 -26
24 -95 27 -138 5 -40 -20 -59 -53 -115 -185 -86 -208 -97 -225 -176 -277 -252
-163 -475 -228 -544 -158 -35 34 -33 85 9 170 64 135 183 264 257 280 43 10
51 -3 58 -82 l6 -68 38 1 c72 2 131 91 142 215 7 77 -5 106 -55 132 -78 41
-230 -3 -367 -107 -96 -72 -201 -202 -262 -323 -27 -52 -42 -68 -96 -102 -121
-77 -275 -147 -300 -137 -28 10 -15 45 62 168 130 207 179 348 151 433 -10 32
-22 45 -58 63 -24 12 -61 22 -81 22 -89 0 -278 -70 -355 -132 -66 -53 -62 -53
-57 -4 5 38 2 48 -20 70 -30 29 -55 32 -96 11 -49 -25 -72 -63 -190 -307
l-114 -235 -53 -33 c-112 -67 -214 -96 -242 -68 -37 37 1 163 123 409 72 145
86 180 81 208 -7 42 -30 68 -68 76 -66 15 -113 -31 -168 -164 -114 -278 -316
-495 -481 -517 -57 -8 -79 11 -79 65 0 82 51 202 174 406 78 131 84 164 34
196 -40 25 -103 21 -145 -9 -15 -11 -49 -57 -75 -103 -43 -78 -147 -195 -228
-257 -43 -33 -108 -62 -138 -62 -50 0 -57 20 -37 101 23 94 16 176 -19 230
-63 95 -211 138 -371 107z m104 -212 c37 -20 51 -55 51 -130 0 -76 -19 -134
-66 -203 -92 -134 -260 -177 -311 -79 -22 43 -20 150 6 217 56 147 219 247
320 195z"/>
</g>
</svg>
